<svg width="83" height="92" viewBox="0 0 83 92" fill="none" xmlns="http://www.w3.org/2000/svg">
<path d="M72.625 20.125H10.375C8.95708 20.125 7.78125 18.8217 7.78125 17.25C7.78125 15.6783 8.95708 14.375 10.375 14.375H72.625C74.0429 14.375 75.2188 15.6783 75.2188 17.25C75.2188 18.8217 74.0429 20.125 72.625 20.125Z" fill="white"/>
<path d="M43.1254 39.2916H10.375C8.95708 39.2916 7.78125 37.9883 7.78125 36.4166C7.78125 34.845 8.95708 33.5416 10.375 33.5416H43.1254C44.5433 33.5416 45.7192 34.845 45.7192 36.4166C45.7192 37.9883 44.5779 39.2916 43.1254 39.2916Z" fill="white"/>
<path d="M72.625 58.4584H10.375C8.95708 58.4584 7.78125 57.155 7.78125 55.5834C7.78125 54.0117 8.95708 52.7084 10.375 52.7084H72.625C74.0429 52.7084 75.2188 54.0117 75.2188 55.5834C75.2188 57.155 74.0429 58.4584 72.625 58.4584Z" fill="white"/>
<path d="M43.1254 77.625H10.375C8.95708 77.625 7.78125 76.3217 7.78125 74.75C7.78125 73.1783 8.95708 71.875 10.375 71.875H43.1254C44.5433 71.875 45.7192 73.1783 45.7192 74.75C45.7192 76.3217 44.5779 77.625 43.1254 77.625Z" fill="white"/>
</svg>
