<svg width="122" height="154" viewBox="0 0 122 154" fill="none" xmlns="http://www.w3.org/2000/svg">
<rect x="0.5" y="11.5" width="121" height="121" rx="34.5" fill="#531607" stroke="black"/>
<mask id="path-2-outside-1_563_96" maskUnits="userSpaceOnUse" x="36" y="45" width="52" height="52" fill="black">
<rect fill="white" x="36" y="45" width="52" height="52"/>
<path d="M86.752 75.952H67.36V95.824H57.184V75.952H37.792V66.736H57.184V46.864H67.36V66.736H86.752V75.952Z"/>
</mask>
<path d="M86.752 75.952H67.36V95.824H57.184V75.952H37.792V66.736H57.184V46.864H67.36V66.736H86.752V75.952Z" fill="white"/>
<path d="M86.752 75.952V76.952H87.752V75.952H86.752ZM67.36 75.952V74.952H66.36V75.952H67.36ZM67.36 95.824V96.824H68.36V95.824H67.36ZM57.184 95.824H56.184V96.824H57.184V95.824ZM57.184 75.952H58.184V74.952H57.184V75.952ZM37.792 75.952H36.792V76.952H37.792V75.952ZM37.792 66.736V65.736H36.792V66.736H37.792ZM57.184 66.736V67.736H58.184V66.736H57.184ZM57.184 46.864V45.864H56.184V46.864H57.184ZM67.36 46.864H68.36V45.864H67.36V46.864ZM67.36 66.736H66.36V67.736H67.36V66.736ZM86.752 66.736H87.752V65.736H86.752V66.736ZM86.752 74.952H67.36V76.952H86.752V74.952ZM66.36 75.952V95.824H68.36V75.952H66.36ZM67.36 94.824H57.184V96.824H67.36V94.824ZM58.184 95.824V75.952H56.184V95.824H58.184ZM57.184 74.952H37.792V76.952H57.184V74.952ZM38.792 75.952V66.736H36.792V75.952H38.792ZM37.792 67.736H57.184V65.736H37.792V67.736ZM58.184 66.736V46.864H56.184V66.736H58.184ZM57.184 47.864H67.36V45.864H57.184V47.864ZM66.36 46.864V66.736H68.36V46.864H66.36ZM67.36 67.736H86.752V65.736H67.36V67.736ZM85.752 66.736V75.952H87.752V66.736H85.752Z" fill="black" mask="url(#path-2-outside-1_563_96)"/>
</svg>
